<?xml version="1.0" encoding="UTF-8"?>
<svg width="22px" height="24px" viewBox="0 0 22 24" version="1.1" xmlns="http://www.w3.org/2000/svg" xmlns:xlink="http://www.w3.org/1999/xlink">
    <!-- Generator: Sketch 48.2 (47327) - http://www.bohemiancoding.com/sketch -->
    <title>beverages</title>
    <desc>Created with Sketch.</desc>
    <defs></defs>
    <g id="bnp-03-copy-14" stroke="none" stroke-width="1" fill="none" fill-rule="evenodd" transform="translate(-808.000000, -463.000000)">
        <path d="M828.660081,463.820708 L823.923582,463.021422 C823.237068,462.906719 822.557323,463.260579 822.250019,463.892644 L819.921241,468.616424 L809.540415,468.616424 C808.824611,468.634128 808.210191,469.13734 808.043512,469.842394 C807.876833,470.547447 808.199631,471.277798 808.829941,471.621739 L809.153601,474.019597 C813.053318,473.532032 815.989947,474.914797 818.437138,476.073761 C820.73434,477.16079 822.644728,478.063983 825.210331,477.672333 L825.999747,471.613746 C826.617215,471.270514 826.935421,470.55465 826.779707,469.859086 C826.623992,469.163521 826.032031,468.656542 825.328743,468.616424 L823.457826,468.616424 L824.539327,466.378423 L828.139066,467.017852 C829.011031,467.163525 829.834532,466.565911 829.978406,465.683044 C830.12228,464.800177 829.532046,463.966381 828.660081,463.820708 Z M816.43202,480.381913 C814.17429,479.310869 812.295479,478.431655 809.800923,478.727391 L810.708752,485.401428 C810.75316,486.246823 811.407003,486.929315 812.240219,487 L822.636833,487 C823.470049,486.929315 824.123892,486.246823 824.168301,485.401428 L824.539327,482.523999 C821.43692,482.627906 819.171295,481.676756 816.43202,480.381913 Z" id="beverages" fill="#0085F1" fill-rule="nonzero"></path>
    </g>
</svg>