<?xml version="1.0" encoding="UTF-8"?>
<svg width="23px" height="24px" viewBox="0 0 23 24" version="1.1" xmlns="http://www.w3.org/2000/svg" xmlns:xlink="http://www.w3.org/1999/xlink">
    <!-- Generator: Sketch 48.2 (47327) - http://www.bohemiancoding.com/sketch -->
    <title>firstaidkit</title>
    <desc>Created with Sketch.</desc>
    <defs></defs>
    <g id="bnp-03-copy-14" stroke="none" stroke-width="1" fill="none" fill-rule="evenodd" transform="translate(-805.000000, -414.000000)">
        <path d="M827.972411,433.194525 L827.250427,425.186762 C826.972343,422.665745 824.99009,420.681709 822.49009,420.422142 L822.743975,419.717459 C823.116191,418.682804 823.116191,417.549008 822.743975,416.514353 C822.382096,415.413725 821.481575,414.580562 820.363806,414.312218 C817.865672,413.895927 815.316808,413.895927 812.818673,414.312218 C811.701644,414.581968 810.801708,415.414591 810.438505,416.514353 C810.066288,417.549008 810.066288,418.682804 810.438505,419.717459 L810.533712,420.382103 C808.033711,420.64167 806.051459,422.625706 805.773375,425.146723 L805.027589,433.194525 C804.887806,434.431056 805.283658,435.668304 806.113566,436.588782 C806.943475,437.509261 808.126655,438.023369 809.359495,437.999183 L823.640505,437.999183 C824.873345,438.023369 826.056525,437.509261 826.886434,436.588782 C827.716342,435.668304 828.112194,434.431056 827.972411,433.194525 Z M813.278839,417.627433 C813.304515,417.552448 813.342023,417.482142 813.389913,417.419231 C815.448505,417.098978 817.543561,417.098978 819.602153,417.419231 C819.650043,417.482142 819.687551,417.552448 819.713227,417.627433 C819.822649,417.946463 819.822649,418.293357 819.713227,418.612387 L819.094383,420.382103 L813.905617,420.382103 L813.278839,418.620395 C813.167578,418.298933 813.167578,417.948895 813.278839,417.627433 Z M822.053726,429.99142 C822.053726,430.875933 821.343301,431.592972 820.466947,431.592972 L818.880168,431.592972 L818.880168,433.194525 C818.880168,434.079038 818.169743,434.796078 817.293389,434.796078 L815.706611,434.796078 C814.830257,434.796078 814.119832,434.079038 814.119832,433.194525 L814.119832,431.592972 L812.533053,431.592972 C811.656699,431.592972 810.946274,430.875933 810.946274,429.99142 L810.946274,428.389867 C810.946274,427.505354 811.656699,426.788314 812.533053,426.788314 L814.119832,426.788314 L814.119832,425.186762 C814.119832,424.302248 814.830257,423.585209 815.706611,423.585209 L817.293389,423.585209 C818.169743,423.585209 818.880168,424.302248 818.880168,425.186762 L818.880168,426.788314 L820.466947,426.788314 C821.343301,426.788314 822.053726,427.505354 822.053726,428.389867 L822.053726,429.99142 Z" id="firstaidkit" fill="#0085F1" fill-rule="nonzero"></path>
    </g>
</svg>