<?xml version="1.0" encoding="UTF-8"?>
<svg width="19px" height="24px" viewBox="0 0 19 24" version="1.1" xmlns="http://www.w3.org/2000/svg" xmlns:xlink="http://www.w3.org/1999/xlink">
    <!-- Generator: Sketch 48.2 (47327) - http://www.bohemiancoding.com/sketch -->
    <title>lockers</title>
    <desc>Created with Sketch.</desc>
    <defs></defs>
    <g id="bnp-03-copy-14" stroke="none" stroke-width="1" fill="none" fill-rule="evenodd" transform="translate(-651.000000, -415.000000)">
        <path d="M666.833333,426.2 L666.833333,421.4 C666.833333,417.865378 663.997803,415 660.5,415 C657.002197,415 654.166667,417.865378 654.166667,421.4 L654.166667,426.2 C652.417765,426.2 651,427.632689 651,429.4 L651,435.8 C651,437.567311 652.417765,439 654.166667,439 L666.833333,439 C668.582235,439 670,437.567311 670,435.8 L670,429.4 C670,427.632689 668.582235,426.2 666.833333,426.2 Z M660.5,435.4 C659.4075,435.4 658.520833,434.144 658.520833,432.6 C658.520833,431.056 659.4075,429.8 660.5,429.8 C661.5925,429.8 662.479167,431.056 662.479167,432.6 C662.479167,434.144 661.5925,435.4 660.5,435.4 Z M663.666667,426.2 L657.333333,426.2 L657.333333,421.4 C657.333333,419.632689 658.751098,418.2 660.5,418.2 C662.248902,418.2 663.666667,419.632689 663.666667,421.4 L663.666667,426.2 Z" id="lockers" fill="#0085F1" fill-rule="nonzero"></path>
    </g>
</svg>