<?xml version="1.0" encoding="UTF-8"?>
<svg width="24px" height="24px" viewBox="0 0 24 24" version="1.1" xmlns="http://www.w3.org/2000/svg" xmlns:xlink="http://www.w3.org/1999/xlink">
    <!-- Generator: Sketch 48.2 (47327) - http://www.bohemiancoding.com/sketch -->
    <title>parking</title>
    <desc>Created with Sketch.</desc>
    <defs></defs>
    <g id="bnp-03-copy-14" stroke="none" stroke-width="1" fill="none" fill-rule="evenodd" transform="translate(-947.000000, -459.000000)">
        <path d="M951.001949,475.681136 C949.013918,475.681136 947.4023,477.319519 947.4023,479.340568 C947.4023,481.361616 949.013918,483 951.001949,483 C952.98998,483 954.601598,481.361616 954.601598,479.340568 C954.601598,477.319519 952.98998,475.681136 951.001949,475.681136 Z M964.440639,469.175478 C965.134255,465.564951 963.475231,461.908676 960.323338,460.101477 C957.171444,458.294277 953.235313,458.742462 950.5548,461.213763 C947.874287,463.685065 947.052045,467.623867 948.514192,470.98893 C947.301904,472.291775 946.773054,474.104022 947.09033,475.868173 C948.664792,474.049131 951.25422,473.551273 953.373379,474.66016 C955.492537,475.769046 956.598724,478.2007 956.057456,480.560379 L960.345038,480.560379 C958.825187,474.054721 968.152278,471.354873 970.304068,477.600304 C970.759947,476.764137 970.999413,475.823942 971,474.867928 C971,471.915986 968.992196,469.175478 964.440639,469.175478 Z M960.721002,469.175478 C952.257827,469.175478 952.481805,469.126686 951.70588,469.256799 C950.95954,467.23716 951.606519,464.958986 953.296873,463.65452 C954.987226,462.350054 957.319616,462.329015 959.032472,463.602782 C960.745329,464.876549 961.431972,467.142694 960.721002,469.175478 Z M965.400546,475.681136 C963.412514,475.681136 961.800897,477.319519 961.800897,479.340568 C961.800897,481.361616 963.412514,483 965.400546,483 C967.388577,483 969.000195,481.361616 969.000195,479.340568 C969.000195,477.319519 967.388577,475.681136 965.400546,475.681136 Z" id="parking" fill="#0085F1" fill-rule="nonzero"></path>
    </g>
</svg>