<?xml version="1.0" encoding="UTF-8"?>
<svg width="24px" height="22px" viewBox="0 0 24 22" version="1.1" xmlns="http://www.w3.org/2000/svg" xmlns:xlink="http://www.w3.org/1999/xlink">
    <!-- Generator: Sketch 49.1 (51147) - http://www.bohemiancoding.com/sketch -->
    <title>restrooms</title>
    <desc>Created with Sketch.</desc>
    <defs></defs>
    <g id="Page-11" stroke="none" stroke-width="1" fill="none" fill-rule="evenodd">
        <g id="bnp-03-copy-14" transform="translate(-501.000000, -518.000000)" fill="#0085F1">
            <path d="M514.60176,518.198652 L514.60176,539.881773 L512.550962,539.881773 L512.550962,518.198652 L514.60176,518.198652 Z M506.080569,521.57216 C505.09225,521.577168 504.287051,520.777551 504.283211,519.785722 C504.287051,518.80367 505.09225,518.003816 506.080569,518 C507.078008,518.003816 507.883207,518.80367 507.877927,519.785961 C507.883207,520.777551 507.078008,521.577406 506.080569,521.57216 Z M505.814409,532.909873 L505.814409,539.154416 C505.819929,540.281224 504.124331,540.281224 504.123611,539.154416 L504.123611,532.909873 L501.873613,532.909873 L504.283211,524.614898 L503.897291,524.614898 L502.485613,529.351069 C502.149853,530.386062 500.723534,529.961572 501.047534,528.86195 L502.618812,523.715122 C502.790412,523.126081 503.537052,522.086079 504.82897,522.087749 L506.013849,522.087749 L507.305528,522.087749 C508.583526,522.086318 509.332806,523.134428 509.528886,523.715122 L511.099924,528.84788 C511.414324,529.95561 509.999045,530.413726 509.661605,529.337237 L508.250887,524.61466 L507.837847,524.61466 L510.260885,532.909396 L508.011127,532.909396 L508.011127,539.167055 C508.010407,540.280508 506.321769,540.274785 506.320329,539.167055 L506.320329,532.909396 L505.814409,532.909396 L505.814409,532.909873 Z M518.915276,522.074632 L522.696472,522.087749 C524.080311,522.081787 525.00191,523.253428 524.99999,524.456311 L524.99999,529.946071 C525.00455,531.02876 523.451992,531.029237 523.455352,529.946071 L523.455352,524.892964 L523.095352,524.892964 L523.095352,538.902583 C523.091032,540.335597 521.000874,540.292671 521.005674,538.902583 L521.005674,530.700376 L520.646154,530.700376 L520.646154,538.902583 C520.643274,540.292671 518.564396,540.335597 518.568956,538.902583 L518.568956,524.892964 L518.196477,524.892964 L518.196477,529.946071 C518.195277,531.020413 516.634318,531.020413 516.638638,529.946071 L516.638638,524.416246 C516.634318,523.119642 517.651677,522.079641 518.915276,522.074632 Z M520.818954,521.57216 C519.820795,521.577168 519.015596,520.777551 519.022076,519.785722 C519.015596,518.80367 519.820795,518.003816 520.818954,518 C521.806793,518.003816 522.611992,518.80367 522.616312,519.785961 C522.611992,520.777551 521.806793,521.577406 520.818954,521.57216 Z" id="restrooms"></path>
        </g>
    </g>
</svg>