<?xml version="1.0" standalone="no"?>
<!DOCTYPE svg PUBLIC "-//W3C//DTD SVG 1.1//EN" "http://www.w3.org/Graphics/SVG/1.1/DTD/svg11.dtd" >
<svg>
<metadata>
Created by FontForge 20120731 at Fri Jul 12 04:12:27 2019
 By www-data
Copyright (c) 2008 by ShyFoundry. All rights reserved. Freeware for personal use only. To purchase a commercial license, please visit our site at http://www.shyfoundry.com.
</metadata>
<defs>
<font id="SFSportsNight" horiz-adv-x="1365" >
  <font-face 
    font-family="SF Sports Night"
    font-weight="400"
    font-stretch="normal"
    units-per-em="2048"
    panose-1="0 0 4 0 0 0 0 0 0 0"
    ascent="1638"
    descent="-410"
    x-height="1365"
    cap-height="1365"
    bbox="-132 -225 2123 1497"
    underline-thickness="20"
    underline-position="-123"
    unicode-range="U+0020-00BF"
  />
<missing-glyph horiz-adv-x="1024" 
 />
    <glyph glyph-name=".notdef" horiz-adv-x="1024" 
 />
    <glyph glyph-name="space" unicode=" " horiz-adv-x="796" 
 />
    <glyph glyph-name="space" unicode="&#xa0;" horiz-adv-x="796" 
 />
    <glyph glyph-name="parenleft" unicode="(" horiz-adv-x="728" 
d="M812 1479q-195 -189 -294 -369q-99 -179 -143 -427q-25 -140 -25 -255q0 -281 180 -540h-341q-159 262 -159 528q0 115 27 267q43 245 135 424q91 178 279 372h341z" />
    <glyph glyph-name="parenright" unicode=")" horiz-adv-x="728" 
d="M699 949q0 -58 -7 -124.5t-21 -141.5q-43 -246 -135 -425q-91 -176 -279 -370h-339q97 94 170 185t122 182q51 91 86 197t57 231q25 140 25 255q0 278 -180 541h341q160 -262 160 -530z" />
    <glyph glyph-name="comma" unicode="," horiz-adv-x="455" 
d="M389 0l-212 -225l41 225h-170l59 341h341z" />
    <glyph glyph-name="period" unicode="." horiz-adv-x="455" 
d="M369 0h-342l59 341h342z" />
    <glyph glyph-name="slash" unicode="/" horiz-adv-x="612" 
d="M191 -130l-323 59l551 1568l327 -59z" />
    <glyph glyph-name="zero" unicode="0" 
d="M1245 319q-23 -133 -134 -226q-110 -93 -242 -93h-614q-117 0 -190 75q-74 77 -74 189q0 14 1 27.5t3 27.5l89 523h410l-75 -432h432l75 432h410zM1377 1101q0 -14 -1.5 -27t-3.5 -27l-16 -91h-1251l16 91q22 132 132 225q111 93 243 93h614q117 0 192 -75t75 -189z" />
    <glyph glyph-name="one" unicode="1" horiz-adv-x="523" 
d="M346 0h-407l145 842h410zM514 956h-409l72 409h410z" />
    <glyph glyph-name="two" unicode="2" 
d="M1336 842q-23 -132 -132 -226q-110 -93 -241 -93h-524l-20 -113h842l-73 -410h-1249l91 523q22 133 131 225q109 94 242 94h933zM1377 1101q0 -14 -1.5 -27t-3.5 -27l-16 -91h-1251l72 409h933q117 0 192 -75t75 -189z" />
    <glyph glyph-name="three" unicode="3" 
d="M1336 842q-12 -70 -116 -159q63 -78 63 -137q0 -5 -0.5 -11t-1.5 -12l-36 -204q-23 -133 -134 -226q-110 -93 -242 -93h-930l70 410h842l21 113h-387l54 319h797zM1377 1101q0 -14 -1.5 -27t-3.5 -27l-16 -91h-1251l72 409h933q117 0 192 -75t75 -189z" />
    <glyph glyph-name="four" unicode="4" 
d="M1188 0h-410l94 523h-842l54 319h1252zM514 956h-409l72 409h410zM1356 956h-409l72 409h410z" />
    <glyph glyph-name="five" unicode="5" 
d="M1286 580q0 -14 -1.5 -28.5t-3.5 -28.5l-36 -204q-23 -133 -134 -226q-110 -93 -242 -93h-930l70 410h842l21 113h-524q-118 0 -193 75q-75 76 -75 189q0 14 1 27.5t3 27.5h933q119 0 194 -75t75 -187zM1356 956h-1251l72 409h1252z" />
    <glyph glyph-name="six" unicode="6" 
d="M439 523l-20 -113h432l21 113h-433zM1286 580q0 -14 -1.5 -28.5t-3.5 -28.5l-36 -204q-23 -133 -134 -226q-110 -93 -242 -93h-614q-117 0 -190 75q-74 77 -74 189q0 14 1 27.5t3 27.5l89 523h933q119 0 194 -75t75 -187zM1356 956h-1251l16 91q22 132 132 225
q111 93 243 93h933z" />
    <glyph glyph-name="seven" unicode="7" 
d="M437 0h-498l607 842h503zM1131 956h-1026l72 409h1252z" />
    <glyph glyph-name="eight" unicode="8" 
d="M439 523l-20 -113h432l21 113h-433zM1336 842q-12 -70 -116 -159q63 -78 63 -137q0 -5 -0.5 -11t-1.5 -12l-36 -204q-23 -133 -134 -226q-110 -93 -242 -93h-614q-117 0 -190 75q-74 77 -74 187q0 14 1 28.5t3 28.5l35 204q11 71 116 160q-64 76 -64 136q0 6 0.5 12
t1.5 11h1252zM1377 1101q0 -14 -1.5 -27t-3.5 -27l-16 -91h-1251l16 91q22 132 132 225q111 93 243 93h614q117 0 192 -75t75 -189z" />
    <glyph glyph-name="nine" unicode="9" 
d="M1245 319q-23 -133 -134 -226q-110 -93 -242 -93h-930l70 410h842l21 113h-524q-118 0 -193 75q-75 76 -75 187q0 15 1 29t3 28h1252zM1377 1101q0 -14 -1.5 -27t-3.5 -27l-16 -91h-1251l16 91q22 132 132 225q111 93 243 93h614q117 0 192 -75t75 -189z" />
    <glyph glyph-name="colon" unicode=":" horiz-adv-x="455" 
d="M314 0h-339l57 341h341zM423 614h-341l59 342h341z" />
    <glyph glyph-name="semicolon" unicode=";" horiz-adv-x="455" 
d="M335 0l-212 -225l41 225h-169l57 341h342zM441 614h-341l62 342h341z" />
    <glyph glyph-name="question" unicode="?" horiz-adv-x="1138" 
d="M278 0h-339l61 341h339zM1158 1140q0 -28 -4 -48l-46 -250q-18 -114 -113 -194q-94 -79 -208 -79h-409l-21 -114h-341l32 182q20 114 114 193q95 80 209 80h410l18 114h-683l61 341h751q101 0 165 -64q65 -63 65 -161z" />
    <glyph glyph-name="A" unicode="A" horiz-adv-x="1297" 
d="M767 0l-14 182h-387l-77 -182h-407l357 842h305h105l-135 -319h216l-25 319h410l61 -842h-409zM287 956l175 409h614l30 -409h-819z" />
    <glyph glyph-name="B" unicode="B" horiz-adv-x="1411" 
d="M439 523l-20 -113h478l20 113h-478zM1381 842q-11 -71 -116 -159q64 -76 64 -137q0 -5 -0.5 -11t-1.5 -12l-37 -204q-22 -130 -133 -226q-110 -93 -242 -93h-976l145 842h1297zM1422 1101q0 -14 -1 -27t-3 -27l-16 -91h-1297l72 409h979q116 0 191 -75t75 -189z" />
    <glyph glyph-name="C" unicode="C" 
d="M1188 0h-933q-117 0 -190 75q-74 77 -74 187q0 14 1 28.5t3 28.5l89 523h410l-75 -432h842zM1356 956h-1251l16 91q22 132 132 225q111 93 243 93h933z" />
    <glyph glyph-name="D" unicode="D" 
d="M1245 319q-23 -133 -134 -226q-110 -93 -242 -93h-930l145 842h410l-75 -432h432l75 432h410zM1377 1101q0 -14 -1.5 -27t-3.5 -27l-16 -91h-1251l72 409h933q117 0 192 -75t75 -189z" />
    <glyph glyph-name="E" unicode="E" horiz-adv-x="1252" 
d="M1167 523h-728l-20 -113h728l-73 -410h-1135l145 842h1138zM1242 956h-1137l72 409h1138z" />
    <glyph glyph-name="F" unicode="F" horiz-adv-x="1252" 
d="M1167 523h-728l-93 -523h-407l145 842h1138zM1242 956h-1137l72 409h1138z" />
    <glyph glyph-name="G" unicode="G" 
d="M1245 319q-23 -133 -134 -226q-110 -93 -242 -93h-614q-117 0 -190 75q-74 77 -74 187q0 14 1 28.5t3 28.5l89 523h410l-75 -432h432l21 113h-183l55 319h592zM1356 956h-1251l16 91q22 132 132 225q111 93 243 93h933z" />
    <glyph glyph-name="H" unicode="H" 
d="M1188 0h-410l94 523h-433l-93 -523h-407l145 842h1252zM514 956h-409l72 409h410zM1356 956h-409l72 409h410z" />
    <glyph glyph-name="I" unicode="I" horiz-adv-x="523" 
d="M346 0h-407l145 842h410zM514 956h-409l72 409h410z" />
    <glyph glyph-name="J" unicode="J" 
d="M1245 319q-23 -133 -134 -226q-110 -93 -242 -93h-614q-117 0 -190 75q-74 77 -74 189q0 14 1 27.5t3 27.5l35 204h409l-20 -113h432l75 432h410zM1356 956h-409l72 409h410z" />
    <glyph glyph-name="K" unicode="K" horiz-adv-x="1308" 
d="M710 0l-264 560l-100 -560h-407l145 842h913l-132 -159l323 -683h-478zM514 956h-409l72 409h410zM1090 956h-478l339 409h478z" />
    <glyph glyph-name="L" unicode="L" horiz-adv-x="1252" 
d="M1074 0h-1135l145 842h410l-75 -432h728zM514 956h-409l72 409h410z" />
    <glyph glyph-name="M" unicode="M" horiz-adv-x="1593" 
d="M1415 0h-409l100 571l-430 -571l-230 571l-100 -571h-407l145 842h1479zM105 956l72 409h410l164 -409h-646zM1584 956h-646l309 409h410z" />
    <glyph glyph-name="N" unicode="N" 
d="M346 0h-407l145 842h410zM1188 0h-410l148 842h410zM1377 1101q0 -14 -1.5 -27t-3.5 -27l-16 -91h-1251l72 409h933q117 0 192 -75t75 -189z" />
    <glyph glyph-name="O" unicode="O" 
d="M1245 319q-23 -133 -134 -226q-110 -93 -242 -93h-614q-117 0 -190 75q-74 77 -74 189q0 14 1 27.5t3 27.5l89 523h410l-75 -432h432l75 432h410zM1377 1101q0 -14 -1.5 -27t-3.5 -27l-16 -91h-1251l16 91q22 132 132 225q111 93 243 93h614q117 0 192 -75t75 -189z" />
    <glyph glyph-name="P" unicode="P" 
d="M1336 842q-23 -132 -132 -226q-110 -93 -241 -93h-524l-93 -523h-407l145 842h1252zM1377 1101q0 -14 -1.5 -27t-3.5 -27l-16 -91h-1251l72 409h933q117 0 192 -75t75 -189z" />
    <glyph glyph-name="Q" unicode="Q" horiz-adv-x="1479" 
d="M1302 0h-1047q-117 0 -190 75q-74 77 -74 189q0 14 1 27.5t3 27.5l89 523h410l-75 -432h432l75 432h410l-75 -432h113zM1377 1101q0 -14 -1.5 -27t-3.5 -27l-16 -91h-1251l16 91q22 132 132 225q111 93 243 93h614q117 0 192 -75t75 -189z" />
    <glyph glyph-name="R" unicode="R" 
d="M1336 842q-12 -70 -116 -159q61 -76 61 -137v-23l-93 -523h-410l94 523h-433l-93 -523h-407l145 842h1252zM1377 1101q0 -14 -1.5 -27t-3.5 -27l-16 -91h-1251l72 409h933q117 0 192 -75t75 -189z" />
    <glyph glyph-name="S" unicode="S" 
d="M1286 578q0 -14 -1.5 -27.5t-3.5 -27.5l-36 -204q-23 -133 -134 -226q-110 -93 -242 -93h-930l70 410h842l21 113h-524q-118 0 -193 75q-75 76 -75 189q0 14 1 27.5t3 27.5h933q119 0 194 -75t75 -189zM1356 956h-1251l16 91q22 132 132 225q111 93 243 93h933z" />
    <glyph glyph-name="T" unicode="T" 
d="M767 0h-410l148 842h410zM1356 956h-1251l72 409h1252z" />
    <glyph glyph-name="U" unicode="U" 
d="M1245 319q-23 -133 -134 -226q-110 -93 -242 -93h-614q-117 0 -190 75q-74 77 -74 189q0 14 1 27.5t3 27.5l89 523h410l-75 -432h432l75 432h410zM514 956h-409l72 409h410zM1356 956h-409l72 409h410z" />
    <glyph glyph-name="V" unicode="V" horiz-adv-x="1297" 
d="M835 0h-614l-62 842h408l34 -432l184 432h407zM150 956l-29 409h409l30 -409h-410zM1242 956h-409l175 409h410z" />
    <glyph glyph-name="W" unicode="W" horiz-adv-x="2002" 
d="M1541 0h-524l-41 546l-232 -546h-523l-62 842h408l20 -250l105 250h671l21 -250l104 250h410zM150 956l-29 409h409l30 -409h-410zM742 956l175 409h410l29 -409h-614zM1948 956h-410l175 409h410z" />
    <glyph glyph-name="X" unicode="X" 
d="M767 0l-150 314l-260 -314h-475l562 683l-75 159h682l-129 -159l323 -683h-478zM1147 956h-833l-193 409h477l151 -314l259 314h478z" />
    <glyph glyph-name="Y" unicode="Y" 
d="M878 637l-111 -637h-410l112 637l-98 205h678zM1145 956h-829l-195 409h477l151 -314l259 314h478z" />
    <glyph glyph-name="Z" unicode="Z" 
d="M1188 0h-1249l607 842h503l-312 -432h524zM1131 956h-1026l72 409h1252z" />
    <glyph glyph-name="bracketleft" unicode="[" horiz-adv-x="683" 
d="M705 1138h-227l-159 -910h227l-61 -340h-567l280 1591h569z" />
    <glyph glyph-name="backslash" unicode="\" horiz-adv-x="612" 
d="M478 -71l-344 -59v1568l346 59z" />
    <glyph glyph-name="bracketright" unicode="]" horiz-adv-x="683" 
d="M485 -112h-567l62 340h225l159 910h-227l61 341h569z" />
    <glyph glyph-name="a" unicode="a" horiz-adv-x="1297" 
d="M767 0l-14 182h-387l-77 -182h-407l357 842h305h105l-135 -319h216l-25 319h410l61 -842h-409zM287 956l175 409h614l30 -409h-819z" />
    <glyph glyph-name="b" unicode="b" horiz-adv-x="1411" 
d="M439 523l-20 -113h478l20 113h-478zM1381 842q-11 -71 -116 -159q64 -76 64 -137q0 -5 -0.5 -11t-1.5 -12l-37 -204q-22 -130 -133 -226q-110 -93 -242 -93h-976l145 842h1297zM1422 1101q0 -14 -1 -27t-3 -27l-16 -91h-1297l72 409h979q116 0 191 -75t75 -189z" />
    <glyph glyph-name="c" unicode="c" 
d="M1188 0h-933q-117 0 -190 75q-74 77 -74 187q0 14 1 28.5t3 28.5l89 523h410l-75 -432h842zM1356 956h-1251l16 91q22 132 132 225q111 93 243 93h933z" />
    <glyph glyph-name="d" unicode="d" 
d="M1245 319q-23 -133 -134 -226q-110 -93 -242 -93h-930l145 842h410l-75 -432h432l75 432h410zM1377 1101q0 -14 -1.5 -27t-3.5 -27l-16 -91h-1251l72 409h933q117 0 192 -75t75 -189z" />
    <glyph glyph-name="e" unicode="e" horiz-adv-x="1252" 
d="M1167 523h-728l-20 -113h728l-73 -410h-1135l145 842h1138zM1242 956h-1137l72 409h1138z" />
    <glyph glyph-name="f" unicode="f" horiz-adv-x="1252" 
d="M1167 523h-728l-93 -523h-407l145 842h1138zM1242 956h-1137l72 409h1138z" />
    <glyph glyph-name="g" unicode="g" 
d="M1245 319q-23 -133 -134 -226q-110 -93 -242 -93h-614q-117 0 -190 75q-74 77 -74 187q0 14 1 28.5t3 28.5l89 523h410l-75 -432h432l21 113h-183l55 319h592zM1356 956h-1251l16 91q22 132 132 225q111 93 243 93h933z" />
    <glyph glyph-name="h" unicode="h" 
d="M1188 0h-410l94 523h-433l-93 -523h-407l145 842h1252zM514 956h-409l72 409h410zM1356 956h-409l72 409h410z" />
    <glyph glyph-name="i" unicode="i" horiz-adv-x="523" 
d="M346 0h-407l145 842h410zM514 956h-409l72 409h410z" />
    <glyph glyph-name="j" unicode="j" 
d="M1245 319q-23 -133 -134 -226q-110 -93 -242 -93h-614q-117 0 -190 75q-74 77 -74 189q0 14 1 27.5t3 27.5l35 204h409l-20 -113h432l75 432h410zM1356 956h-409l72 409h410z" />
    <glyph glyph-name="k" unicode="k" horiz-adv-x="1308" 
d="M710 0l-264 560l-100 -560h-407l145 842h913l-132 -159l323 -683h-478zM514 956h-409l72 409h410zM1090 956h-478l339 409h478z" />
    <glyph glyph-name="l" unicode="l" horiz-adv-x="1252" 
d="M1074 0h-1135l145 842h410l-75 -432h728zM514 956h-409l72 409h410z" />
    <glyph glyph-name="m" unicode="m" horiz-adv-x="1593" 
d="M1415 0h-409l100 571l-430 -571l-230 571l-100 -571h-407l145 842h1479zM105 956l72 409h410l164 -409h-646zM1584 956h-646l309 409h410z" />
    <glyph glyph-name="n" unicode="n" 
d="M346 0h-407l145 842h410zM1188 0h-410l148 842h410zM1377 1101q0 -14 -1.5 -27t-3.5 -27l-16 -91h-1251l72 409h933q117 0 192 -75t75 -189z" />
    <glyph glyph-name="o" unicode="o" 
d="M1245 319q-23 -133 -134 -226q-110 -93 -242 -93h-614q-117 0 -190 75q-74 77 -74 189q0 14 1 27.5t3 27.5l89 523h410l-75 -432h432l75 432h410zM1377 1101q0 -14 -1.5 -27t-3.5 -27l-16 -91h-1251l16 91q22 132 132 225q111 93 243 93h614q117 0 192 -75t75 -189z" />
    <glyph glyph-name="p" unicode="p" 
d="M1336 842q-23 -132 -132 -226q-110 -93 -241 -93h-524l-93 -523h-407l145 842h1252zM1377 1101q0 -14 -1.5 -27t-3.5 -27l-16 -91h-1251l72 409h933q117 0 192 -75t75 -189z" />
    <glyph glyph-name="q" unicode="q" horiz-adv-x="1479" 
d="M1302 0h-1047q-117 0 -190 75q-74 77 -74 189q0 14 1 27.5t3 27.5l89 523h410l-75 -432h432l75 432h410l-75 -432h113zM1377 1101q0 -14 -1.5 -27t-3.5 -27l-16 -91h-1251l16 91q22 132 132 225q111 93 243 93h614q117 0 192 -75t75 -189z" />
    <glyph glyph-name="r" unicode="r" 
d="M1336 842q-12 -70 -116 -159q61 -76 61 -137v-23l-93 -523h-410l94 523h-433l-93 -523h-407l145 842h1252zM1377 1101q0 -14 -1.5 -27t-3.5 -27l-16 -91h-1251l72 409h933q117 0 192 -75t75 -189z" />
    <glyph glyph-name="s" unicode="s" 
d="M1286 578q0 -14 -1.5 -27.5t-3.5 -27.5l-36 -204q-23 -133 -134 -226q-110 -93 -242 -93h-930l70 410h842l21 113h-524q-118 0 -193 75q-75 76 -75 189q0 14 1 27.5t3 27.5h933q119 0 194 -75t75 -189zM1356 956h-1251l16 91q22 132 132 225q111 93 243 93h933z" />
    <glyph glyph-name="t" unicode="t" 
d="M767 0h-410l148 842h410zM1356 956h-1251l72 409h1252z" />
    <glyph glyph-name="u" unicode="u" 
d="M1245 319q-23 -133 -134 -226q-110 -93 -242 -93h-614q-117 0 -190 75q-74 77 -74 189q0 14 1 27.5t3 27.5l89 523h410l-75 -432h432l75 432h410zM514 956h-409l72 409h410zM1356 956h-409l72 409h410z" />
    <glyph glyph-name="v" unicode="v" horiz-adv-x="1297" 
d="M835 0h-614l-62 842h408l34 -432l184 432h407zM150 956l-29 409h409l30 -409h-410zM1242 956h-409l175 409h410z" />
    <glyph glyph-name="w" unicode="w" horiz-adv-x="2002" 
d="M1541 0h-524l-41 546l-232 -546h-523l-62 842h408l20 -250l105 250h671l21 -250l104 250h410zM150 956l-29 409h409l30 -409h-410zM742 956l175 409h410l29 -409h-614zM1948 956h-410l175 409h410z" />
    <glyph glyph-name="x" unicode="x" 
d="M767 0l-150 314l-260 -314h-475l562 683l-75 159h682l-129 -159l323 -683h-478zM1147 956h-833l-193 409h477l151 -314l259 314h478z" />
    <glyph glyph-name="y" unicode="y" 
d="M878 637l-111 -637h-410l112 637l-98 205h678zM1145 956h-829l-195 409h477l151 -314l259 314h478z" />
    <glyph glyph-name="z" unicode="z" 
d="M1188 0h-1249l607 842h503l-312 -432h524zM1131 956h-1026l72 409h1252z" />
    <glyph glyph-name="braceleft" unicode="{" horiz-adv-x="796" 
d="M819 1138h-227l-60 -342q-9 -47 -48 -80q-38 -33 -86 -33q21 0 38.5 -7.5t30 -20t20 -30t7.5 -36.5q0 -5 -0.5 -10t-1.5 -10l-60 -341h228l-62 -340h-295q-100 0 -164 63t-64 161q0 11 0.5 22.5t1.5 24.5l69 387q1 5 1.5 10t0.5 11q0 42 -25.5 67.5t-70.5 25.5l21 114
q48 0 87 39q40 40 52 97l52 296q18 114 112 193q95 80 209 80h296z" />
    <glyph glyph-name="bar" unicode="|" horiz-adv-x="455" 
d="M257 -112h-339l280 1591h341z" />
    <glyph glyph-name="braceright" unicode="}" horiz-adv-x="796" 
d="M735 660q-46 0 -86 -33q-39 -33 -48 -81l-69 -387q-18 -112 -113 -192q-94 -79 -207 -79h-294l62 340h225l59 341q4 24 16.5 45t30.5 36t40.5 24t46.5 9q-42 0 -68.5 27t-26.5 66q0 5 0.5 10t1.5 10l59 342h-227l61 341h296q100 0 163 -64q64 -63 64 -161q0 -11 -0.5 -23
t-1.5 -25l-52 -296q-3 -14 -3 -27q0 -48 25.5 -78.5t65.5 -30.5z" />
    <glyph glyph-name="exclamdown" unicode="&#xa1;" horiz-adv-x="455" 
d="M278 0h-339l159 910h341zM457 1024h-341l61 341h342z" />
    <glyph glyph-name="questiondown" unicode="&#xbf;" horiz-adv-x="1138" 
d="M1090 728q-20 -115 -115 -194q-94 -79 -208 -79h-410l-18 -114h683l-62 -341h-751q-100 0 -164 63q-63 64 -63 162q0 28 4 48l44 250q18 114 112 193q95 80 208 80h410l21 114h341zM1140 1024h-341l61 341h341z" />
    <glyph glyph-name="quoteleft" horiz-adv-x="455" 
d="M348 796h-341l59 342l212 227l-41 -227h170z" />
    <glyph glyph-name="quoteleft" unicode="&#x2018;" horiz-adv-x="455" 
d="M348 796h-341l59 342l212 227l-41 -227h170z" />
    <glyph glyph-name="quoteright" horiz-adv-x="455" 
d="M389 1024l-212 -228l41 228h-170l59 341h341z" />
    <glyph glyph-name="quoteright" unicode="&#x2019;" horiz-adv-x="455" 
d="M389 1024l-212 -228l41 228h-170l59 341h341z" />
    <glyph glyph-name="quotesinglbase" horiz-adv-x="455" 
d="M389 0l-212 -225l41 225h-170l59 341h341z" />
    <glyph glyph-name="quotesinglbase" unicode="&#x201a;" horiz-adv-x="455" 
d="M389 0l-212 -225l41 225h-170l59 341h341z" />
    <glyph glyph-name="quotedblleft" horiz-adv-x="853" 
d="M348 796h-341l59 342l212 227l-41 -227h170zM746 796h-341l59 342l212 227l-41 -227h171z" />
    <glyph glyph-name="quotedblleft" unicode="&#x201c;" horiz-adv-x="853" 
d="M348 796h-341l59 342l212 227l-41 -227h170zM746 796h-341l59 342l212 227l-41 -227h171z" />
    <glyph glyph-name="quotedblright" horiz-adv-x="853" 
d="M389 1024l-212 -228l41 228h-170l59 341h341zM787 1024l-211 -228l41 228h-171l59 341h342z" />
    <glyph glyph-name="quotedblright" unicode="&#x201d;" horiz-adv-x="853" 
d="M389 1024l-212 -228l41 228h-170l59 341h341zM787 1024l-211 -228l41 228h-171l59 341h342z" />
    <glyph glyph-name="quotedblbase" horiz-adv-x="853" 
d="M389 0l-212 -225l41 225h-170l59 341h341zM787 0l-211 -225l41 225h-171l59 341h342z" />
    <glyph glyph-name="quotedblbase" unicode="&#x201e;" horiz-adv-x="853" 
d="M389 0l-212 -225l41 225h-170l59 341h341zM787 0l-211 -225l41 225h-171l59 341h342z" />
    <glyph glyph-name="quotesingle" unicode="'" horiz-adv-x="455" 
d="M389 1024l-212 -228l41 228h-170l59 341h341z" />
    <glyph glyph-name="exclam" unicode="!" horiz-adv-x="455" 
d="M278 0h-339l61 341h339zM357 455h-341l161 910h342z" />
    <glyph glyph-name="quotedbl" unicode="&#x22;" horiz-adv-x="853" 
d="M389 1024l-212 -228l41 228h-170l59 341h341zM787 1024l-211 -228l41 228h-171l59 341h342z" />
    <glyph glyph-name=".null" horiz-adv-x="0" 
 />
    <glyph glyph-name="nonmarkingreturn" horiz-adv-x="796" 
 />
  </font>
</defs>
</svg>
