<?xml version="1.0" encoding="UTF-8"?>
<svg width="24px" height="20px" viewBox="0 0 24 20" version="1.1" xmlns="http://www.w3.org/2000/svg" xmlns:xlink="http://www.w3.org/1999/xlink">
    <!-- Generator: Sketch 48.2 (47327) - http://www.bohemiancoding.com/sketch -->
    <title>dressingroom</title>
    <desc>Created with Sketch.</desc>
    <defs></defs>
    <g id="bnp-03-copy-14" stroke="none" stroke-width="1" fill="none" fill-rule="evenodd" transform="translate(-498.000000, -465.000000)">
        <path d="M521.670639,481.866491 C519.169673,478.062835 514.989913,475.73085 510.471945,475.61848 L510.471945,475.004186 C510.475566,474.761544 510.634045,474.549116 510.863899,474.478804 C513.21569,473.736014 514.628761,471.314358 514.13359,468.875361 C513.638418,466.436363 511.395894,464.772496 508.944637,465.025356 C506.49338,465.278217 504.629846,467.365647 504.632626,469.855438 C504.632626,470.525039 505.169822,471.067859 505.832486,471.067859 C506.49515,471.067859 507.032346,470.525039 507.032346,469.855438 C507.033156,468.609474 507.968318,467.566913 509.19536,467.444012 C510.422401,467.321112 511.541917,468.157876 511.784779,469.379434 C512.027641,470.600991 511.314797,471.809721 510.135984,472.175204 C508.898693,472.549617 508.050399,473.699085 508.048228,475.004186 L508.048228,475.723556 C504.079927,476.249122 500.533332,478.490792 498.329361,481.866491 C497.936415,482.470022 497.891962,483.239537 498.212747,483.885167 C498.533532,484.530796 499.17082,484.954454 499.884552,484.996553 C500.598283,485.038651 501.280025,484.692794 501.672971,484.089263 C503.528891,481.284033 506.660806,479.615041 510,479.651801 C513.339194,479.615041 516.471109,481.284033 518.327029,484.089263 C518.719975,484.692794 519.401717,485.038651 520.115448,484.996553 C520.82918,484.954454 521.466468,484.530796 521.787253,483.885167 C522.108038,483.239537 522.063585,482.470022 521.670639,481.866491 Z" id="dressingroom" fill="#0085F1" fill-rule="nonzero"></path>
    </g>
</svg>