<?xml version="1.0"?>
<svg xmlns="http://www.w3.org/2000/svg" height="512px" viewBox="0 0 512 512" width="512px" class=""><g><path d="m301 91h30v30h-30zm0 0" data-original="#000000" class="active-path" data-old_color="#000000" fill="#0085F1"/><path d="m45 452h257.507812c6.96875 34.191406 37.273438 60 73.492188 60h75v-30h61v-30h-61v-30h61v-30h-61v-30h-75c-36.21875 0-66.523438 25.808594-73.492188 60h-257.507812c-8.269531 0-15-6.730469-15-15s6.730469-15 15-15h181c24.8125 0 45-20.1875 45-45v-15.691406c83.976562-7.652344 150-78.863282 150-165.308594 0-91.53125-74.019531-166-165-166s-165 74.46875-165 166c0 86.445312 66.023438 157.65625 150 165.308594v15.691406c0 8.269531-6.730469 15-15 15h-181c-24.8125 0-45 20.1875-45 45s20.1875 45 45 45zm331-60h45v90h-45c-24.8125 0-45-20.1875-45-45s20.1875-45 45-45zm7.394531-181h-37.394531c-8.269531 0-15-6.730469-15-15s6.730469-15.011719 15-15.011719h44.175781c-1.136719 10.398438-3.445312 20.449219-6.78125 30.011719zm-127.394531-181c69.40625 0 126.738281 53.042969 134.175781 121h-44.175781c-24.8125 0-45 20.1875-45 45s20.1875 44.988281 45 44.988281h22.558594c-21.582032 32.765625-56.871094 55.617188-97.558594 60.167969v-45.15625c0-24.8125-20.1875-45-45-45-8.269531 0-15-6.730469-15-15s6.730469-15 15-15c24.8125 0 45-20.1875 45-45s-20.1875-45-45-45h-82.558594c24.199219-36.730469 65.613282-61 112.558594-61zm-135 136c0-15.765625 2.6875-30.90625 7.605469-45h97.394531c8.269531 0 15 6.730469 15 15s-6.730469 15-15 15c-24.8125 0-45 20.1875-45 45s20.1875 45 45 45c8.269531 0 15 6.730469 15 15v45.15625c-67.40625-7.542969-120-65.273438-120-135.15625zm0 0" data-original="#000000" class="active-path" data-old_color="#000000" fill="#0085F1"/><path d="m361 422h30v30h-30zm0 0" data-original="#000000" class="active-path" data-old_color="#000000" fill="#0085F1"/></g> </svg>
