<?xml version="1.0" encoding="UTF-8"?>
<svg width="20px" height="24px" viewBox="0 0 20 24" version="1.1" xmlns="http://www.w3.org/2000/svg" xmlns:xlink="http://www.w3.org/1999/xlink">
    <!-- Generator: Sketch 49.1 (51147) - http://www.bohemiancoding.com/sketch -->
    <title>shower</title>
    <desc>Created with Sketch.</desc>
    <defs></defs>
    <g id="Page-11" stroke="none" stroke-width="1" fill="none" fill-rule="evenodd">
        <g id="bnp-03-copy-14" transform="translate(-599.000000, -517.000000)" fill="#0085F1">
            <path d="M609.639001,520.694421 C608.959294,520.19369 607.909682,519.715578 606.390722,519.741873 C605.913452,519.770995 601.720195,520.148169 601.647252,524.375686 L601.647252,540.855987 L599,540.855987 L599,524.350522 C599.095072,518.831736 603.785816,517.133039 606.287728,517.003544 C610.660474,516.885359 612.575292,519.757989 612.930172,520.365313 C615.630696,520.900821 617.672276,523.357259 617.672276,526.308491 C617.672276,526.445902 617.661348,526.580486 617.652333,526.715635 L605.995684,526.715635 C605.986941,526.580486 605.975467,526.445902 605.975467,526.308491 C605.975467,523.765534 607.491422,521.590422 609.639001,520.694421 Z M618.114851,528.037723 C618.603595,528.037723 619,528.447695 619,528.953798 C619,529.459053 618.603595,529.868742 618.114851,529.868742 L606.024915,529.868742 C605.536444,529.868742 605.140039,529.459053 605.140039,528.953798 C605.140039,528.447978 605.536444,528.037723 606.024915,528.037723 L618.114851,528.037723 Z M608.32521,531.943482 C608.559884,532.226221 609.554584,533.356895 608.637198,534.265619 C608.149273,534.689445 607.447437,534.628656 607.095837,534.164681 C606.744509,533.700141 606.634138,532.950882 607.493334,531.981935 C607.780461,531.666681 607.915692,531.176128 607.915692,531.176128 C607.915692,531.176128 608.091083,531.660743 608.32521,531.943482 Z M610.056169,535.252096 C610.290843,535.534553 611.285816,536.664944 610.369522,537.57395 C609.880778,537.998059 609.178396,537.937553 608.827888,537.47273 C608.47656,537.008755 608.366463,536.259778 609.225112,535.290266 C609.512239,534.975294 609.646924,534.484459 609.646924,534.484459 C609.646924,534.484459 609.822588,534.96964 610.056169,535.252096 Z M611.622391,537.625126 C611.622391,537.625126 611.798328,538.110024 612.031636,538.393328 C612.266583,538.675502 613.26101,539.806176 612.344716,540.714617 C611.856792,541.13816 611.154409,541.078502 610.803901,540.613679 C610.452573,540.149421 610.342203,539.400163 611.200306,538.43065 C611.487433,538.116244 611.622391,537.625126 611.622391,537.625126 Z M613.740739,534.484459 C613.740739,534.484459 613.916403,534.96964 614.15053,535.252379 C614.384931,535.534835 615.380177,536.665226 614.463337,537.57395 C613.974866,537.998059 613.272757,537.937553 612.921703,537.47273 C612.570648,537.008755 612.460004,536.259778 613.318654,535.290266 C613.6066,534.975294 613.740739,534.484459 613.740739,534.484459 Z M612.344443,534.265619 C611.856792,534.689728 611.154409,534.628656 610.803628,534.164681 C610.4523,533.700141 610.34193,532.950882 611.200033,531.981935 C611.48716,531.666681 611.622118,531.176128 611.622118,531.176128 C611.622118,531.176128 611.798055,531.660743 612.031363,531.943482 C612.26631,532.226221 613.260737,533.356895 612.344443,534.265619 Z M615.574418,531.176128 C615.574418,531.176128 615.750355,531.660743 615.984483,531.943482 C616.218337,532.226221 617.213037,533.356895 616.296744,534.265619 C615.807999,534.689445 615.10589,534.628656 614.755109,534.164681 C614.403508,533.700141 614.293411,532.950882 615.151513,531.981935 C615.438641,531.666681 615.574418,531.176128 615.574418,531.176128 Z" id="shower"></path>
        </g>
    </g>
</svg>