<svg height="512pt" viewBox="0 -124 512 512" width="512pt" xmlns="http://www.w3.org/2000/svg"><path d="m268.433594 30.640625-6.960938-26.847656c-.566406-2.207031-3.183594-3.792969-6.226562-3.792969h-11.957032c-3.042968 0-5.660156 1.585938-6.226562 3.792969l-6.960938 26.847656v17.417969h38.960938zm0 0" fill="#b9d9ee"/><path d="m254.917969 3.792969c.367187-1.4375 1.617187-2.601563 3.277343-3.246094-.886718-.34375-1.886718-.546875-2.949218-.546875h-11.957032c-3.042968 0-5.660156 1.585938-6.226562 3.792969l-6.960938 26.847656v17.417969h17.855469v-17.417969zm0 0" fill="#a2c8dd"/><path d="m512 131.1875v21.214844c0 3.949218-3.195312 7.144531-7.144531 7.144531h-27.351563v-35.515625h27.351563c3.949219 0 7.144531 3.207031 7.144531 7.15625zm0 0" fill="#3dcff3"/><path d="m486.785156 124.03125v35.679688l-15.464844 5.226562v48.03125h-455.289062v-71.125c0-9.832031 7.96875-17.8125 17.804688-17.8125h67.214843l21.382813-73.113281c3.515625-12.042969 14.152344-20.277344 26.195312-20.277344h139.671875c12.039063 0 22.667969 8.234375 26.195313 20.277344l21.378906 73.113281zm0 0" fill="#fed974"/><path d="m356.332031 212.96875h114.988281v-48.03125l15.464844-5.226562v-35.679688h-130.453125zm0 0" fill="#f2c557"/><path d="m356.332031 165.203125h114.988281v34.363281h-114.988281zm0 0" fill="#8b8d8e"/><path d="m89.835938 124.03125h-56c-9.835938 0-17.804688 7.980469-17.804688 17.8125v71.125h73.804688zm0 0" fill="#f2c557"/><path d="m16.03125 165.203125h73.804688v34.363281h-73.804688zm0 0" fill="#8b8d8e"/><path d="m397.414062 226.238281c0 20.617188-16.714843 37.328125-37.332031 37.328125-20.617187 0-37.328125-16.710937-37.328125-37.328125 0-20.617187 16.710938-37.332031 37.328125-37.332031 20.617188 0 37.332031 16.714844 37.332031 37.332031zm0 0" fill="#627182"/><path d="m105.144531 110.042969h109.710938c4.445312 0 8.03125-3.601563 8.03125-8.03125v-39.941407c0-4.429687-3.585938-8.027343-8.03125-8.027343h-93.335938zm0 0" fill="#3dcff3"/><path d="m256.359375 110.042969h75.425781l-16.375-56h-59.417968c-4.464844 0-8.074219 3.636719-8.03125 8.101562l.371093 39.9375c.039063 4.402344 3.617188 7.960938 8.027344 7.960938zm0 0" fill="#3dcff3"/><path d="m495.382812 206.671875v12.453125c0 3.925781-3.1875 7.113281-7.113281 7.113281h-117.339843v-26.671875h117.339843c3.925781 0 7.113281 3.1875 7.113281 7.105469zm0 0" fill="#b9d9ee"/><path d="m488.269531 212.902344h-117.339843v13.335937h117.339843c3.925781 0 7.113281-3.1875 7.113281-7.113281v-12.453125c0-.148437-.015624-.296875-.023437-.441406-.230469 3.722656-3.3125 6.671875-7.089844 6.671875zm0 0" fill="#a2c8dd"/><path d="m89.835938 143.96875h266.496093v82.269531h-266.496093zm0 0" fill="#fed974"/><path d="m234.324219 190.617188c-4.273438 0-7.734375-3.460938-7.734375-7.734376v-40.171874c0-4.273438 3.460937-7.734376 7.734375-7.734376 4.269531 0 7.730469 3.460938 7.730469 7.734376v40.171874c0 4.273438-3.460938 7.734376-7.730469 7.734376zm0 0" fill="#f2c557"/><path d="m89.835938 165.203125h266.496093v34.363281h-266.496093zm0 0" fill="#989a9b"/><path d="m397.414062 226.238281c0 20.617188-16.714843 37.328125-37.332031 37.328125-20.617187 0-37.328125-16.710937-37.328125-37.328125 0-20.617187 16.710938-37.332031 37.328125-37.332031 20.617188 0 37.332031 16.714844 37.332031 37.332031zm0 0" fill="#627182"/><path d="m105.144531 110.042969h109.710938c4.445312 0 8.03125-3.601563 8.03125-8.03125v-39.941407c0-4.429687-3.585938-8.027343-8.03125-8.027343h-93.335938zm0 0" fill="#3dcff3"/><path d="m142.09375 54.042969h-20.574219l-16.375 56h109.710938c4.445312 0 8.03125-3.601563 8.03125-8.03125v-7.347657h-50.347657c-21.15625 0-36.382812-20.316406-30.445312-40.621093zm0 0" fill="#2cc2db"/><path d="m256.359375 110.042969h75.425781l-16.375-56h-59.417968c-4.464844 0-8.074219 3.636719-8.03125 8.101562l.371093 39.9375c.039063 4.402344 3.617188 7.960938 8.027344 7.960938zm0 0" fill="#3dcff3"/><path d="m273.65625 93.214844c-4.410156 0-7.988281-3.558594-8.03125-7.960938l-.289062-31.210937h-9.34375c-4.464844 0-8.074219 3.636719-8.03125 8.101562l.371093 39.9375c.039063 4.402344 3.617188 7.960938 8.03125 7.960938h75.421875l-4.921875-16.828125zm0 0" fill="#2cc2db"/><g fill="#b9d9ee"><path d="m272.882812 144.988281h-12.984374c-4.273438 0-7.734376-3.460937-7.734376-7.734375 0-4.269531 3.460938-7.730468 7.734376-7.730468h12.984374c4.273438 0 7.734376 3.460937 7.734376 7.730468 0 4.273438-3.460938 7.734375-7.734376 7.734375zm0 0"/><path d="m152.398438 144.988281h-12.988282c-4.273437 0-7.734375-3.460937-7.734375-7.734375 0-4.269531 3.460938-7.730468 7.734375-7.730468h12.988282c4.269531 0 7.730468 3.460937 7.730468 7.730468 0 4.273438-3.460937 7.734375-7.730468 7.734375zm0 0"/><path d="m105.144531 199.566406v26.671875h-98.03125c-3.925781 0-7.113281-3.1875-7.113281-7.113281v-12.453125c0-3.917969 3.1875-7.105469 7.113281-7.105469zm0 0"/></g><path d="m96.542969 212.484375h-67.445313c-3.925781 0-7.113281-3.183594-7.113281-7.113281v-5.804688h-14.871094c-3.925781 0-7.113281 3.1875-7.113281 7.105469v12.453125c0 3.925781 3.1875 7.113281 7.113281 7.113281h98.03125v-13.753906zm0 0" fill="#a2c8dd"/><path d="m111.886719 188.90625c20.617187 0 37.328125 16.710938 37.328125 37.332031 0 20.617188-16.710938 37.328125-37.328125 37.328125-20.609375 0-37.328125-16.710937-37.328125-37.328125 0-20.621093 16.71875-37.332031 37.328125-37.332031zm0 0" fill="#627182"/><path d="m353.160156 216.234375c0-10.636719 4.453125-20.226563 11.589844-27.027344-1.53125-.191406-3.085938-.300781-4.667969-.300781-20.621093 0-37.332031 16.710938-37.332031 37.332031 0 20.617188 16.710938 37.328125 37.332031 37.328125 9.980469 0 19.039063-3.925781 25.738281-10.304687-18.414062-2.296875-32.660156-17.992188-32.660156-37.027344zm0 0" fill="#526272"/><path d="m104.960938 216.234375c0-10.636719 4.460937-20.226563 11.597656-27.023437-1.53125-.195313-3.089844-.300782-4.671875-.300782-20.609375 0-37.328125 16.710938-37.328125 37.328125 0 20.617188 16.71875 37.328125 37.328125 37.328125 9.980469 0 19.039062-3.921875 25.738281-10.304687-18.40625-2.296875-32.664062-17.992188-32.664062-37.027344zm0 0" fill="#526272"/><path d="m111.886719 212.898438c7.371093 0 13.339843 5.976562 13.339843 13.339843 0 7.371094-5.96875 13.339844-13.339843 13.339844-7.359375 0-13.328125-5.96875-13.328125-13.339844 0-7.363281 5.96875-13.339843 13.328125-13.339843zm0 0" fill="#b9d9ee"/><path d="m360.082031 212.898438c7.359375 0 13.339844 5.976562 13.339844 13.339843 0 7.371094-5.980469 13.339844-13.339844 13.339844-7.371093 0-13.339843-5.96875-13.339843-13.339844 0-7.363281 5.96875-13.339843 13.339843-13.339843zm0 0" fill="#b9d9ee"/><path d="m41.792969 153.382812v19.378907c0 3.363281-2.730469 6.09375-6.09375 6.09375h-19.667969v-31.566407h19.667969c3.363281 0 6.09375 2.730469 6.09375 6.09375zm0 0" fill="#f64446"/></svg>