<svg height="488pt" viewBox="-84 0 488 488" width="488pt" xmlns="http://www.w3.org/2000/svg"><path d="m304 456h-288v-407.402344c0-24.632812 19.964844-44.597656 44.597656-44.597656h198.804688c24.632812 0 44.597656 19.964844 44.597656 44.597656zm0 0" fill="#a4c9ff"/><path d="m52 456v-390.695312c0-13.433594 10.890625-24.324219 24.324219-24.324219h167.351562c13.433594 0 24.328125 10.890625 24.328125 24.324219v390.695312zm0 0" fill="#4671c6"/><path d="m312 484h-304c-2.210938 0-4-1.789062-4-4v-20c0-2.210938 1.789062-4 4-4h304c2.210938 0 4 1.789062 4 4v20c0 2.210938-1.789062 4-4 4zm0 0" fill="#f9a7a7"/><path d="m64 372.488281h-12v-40h12c4.417969 0 8 3.582031 8 8v24c0 4.421875-3.582031 8-8 8zm0 0" fill="#a4c9ff"/><path d="m64 164.488281h-12v-40h12c4.417969 0 8 3.582031 8 8v24c0 4.421875-3.582031 8-8 8zm0 0" fill="#a4c9ff"/><path d="m268 305.152344h-38c-5.523438 0-10-4.476563-10-10v-40c0-5.523438 4.476562-10 10-10h38zm0 0" fill="#a4c9ff"/><path d="m232 283.152344v-16c0-6.628906 5.371094-12 12-12s12 5.371094 12 12v16c0 6.628906-5.371094 12-12 12s-12-5.371094-12-12zm0 0" fill="#e0ebfc"/><path d="m220.507812 184.488281h-120.84375c-1.976562 0-3.578124-1.601562-3.578124-3.578125v-58.53125c0-9.878906 8.007812-17.886718 17.886718-17.886718h92.222656c9.878907 0 17.890626 8.007812 17.890626 17.886718v58.535156c0 1.976563-1.601563 3.574219-3.578126 3.574219zm0 0" fill="#e0ebfc"/><path d="m87.375 58.335938h19.40625v3.71875h-7.402344v24.085937h-4.5625v-24.085937h-7.441406zm0 0"/><path d="m128.058594 86.421875c-7.84375 0-14.203125-5.878906-14.203125-14.242187 0-8.320313 6.359375-14.203126 14.203125-14.203126 7.921875 0 14.203125 5.878907 14.203125 14.203126 0 8.359374-6.28125 14.242187-14.203125 14.242187zm0-3.960937c5.519531 0 9.519531-4 9.519531-10.28125 0-6.285157-4-10.207032-9.519531-10.207032-5.523438 0-9.523438 3.921875-9.523438 10.207032 0 6.28125 4 10.28125 9.523438 10.28125zm0 0"/><path d="m150.734375 58.335938h4.5625v27.804687h-4.5625zm0 0"/><path d="m169.855469 58.335938v24.125h9.402343v3.679687h-13.960937v-27.804687zm0 0"/><path d="m202.417969 62.019531h-10.800781v8.160157h9.601562v3.71875h-9.601562v8.523437h10.800781v3.71875h-15.363281v-27.84375h15.363281zm0 0"/><g fill="#f9cfcf"><path d="m87.375 64.054688h3.441406c1.105469 0 2 .898437 2 2v20.085937c0 1.105469.894532 2 2 2h4.558594c1.105469 0 2-.894531 2-2v-20.085937c0-1.101563.898438-2 2-2h3.402344c1.105468 0 2-.894532 2-2v-3.71875c0-1.105469-.894532-2-2-2h-19.402344c-1.105469 0-2 .894531-2 2v3.71875c0 1.105468.894531 2 2 2zm0 0"/><path d="m116.171875 59.628906c-.242187.144532-.566406.476563-.714844.714844-8.785156 14.4375-.3125 28.078125 12.601563 28.078125 9.238281 0 16.203125-6.980469 16.203125-16.242187 0-12.9375-13.660157-21.414063-28.089844-12.550782zm11.886719 20.832032c-4.570313 0-7.523438-3.25-7.523438-8.28125 0-4.984376 2.953125-8.207032 7.523438-8.207032 4.566406 0 7.519531 3.222656 7.519531 8.207032 0 5.03125-2.953125 8.28125-7.519531 8.28125zm0 0"/><path d="m150.734375 88.140625h4.5625c1.101563 0 2-.894531 2-2v-27.804687c0-1.105469-.898437-2-2-2h-4.5625c-1.101563 0-2 .894531-2 2v27.804687c0 1.105469.894531 2 2 2zm0 0"/><path d="m169.855469 56.335938h-4.558594c-1.105469 0-2 .894531-2 2v27.804687c0 1.105469.894531 2 2 2h13.960937c1.105469 0 2-.894531 2-2v-3.679687c0-1.105469-.894531-2-2-2h-5.402343c-1.101563 0-2-.898438-2-2v-20.125c0-1.105469-.894531-2-2-2zm0 0"/><path d="m187.054688 88.140625h15.363281c1.105469 0 2-.894531 2-2v-3.71875c0-1.105469-.894531-2-2-2h-6.800781c-1.105469 0-2-.894531-2-2v-.523437c0-1.101563.894531-2 2-2h5.601562c1.105469 0 2-.894532 2-2v-3.71875c0-1.105469-.894531-2-2-2h-5.601562c-1.105469 0-2-.894532-2-2v-.160157c0-1.105469.894531-2 2-2h6.800781c1.105469 0 2-.898437 2-2v-3.722656c0-1.101563-.894531-2-2-2h-15.363281c-1.105469 0-2 .898437-2 2v27.847656c0 1.101563.894531 1.996094 2 1.996094zm0 0"/><path d="m208.574219 58.335938v3.71875c0 1.105468.894531 2 2 2h3.441406c1.105469 0 2 .898437 2 2v20.085937c0 1.105469.894531 2 2 2h4.558594c1.105469 0 2-.894531 2-2v-20.085937c0-1.101563.898437-2 2-2h3.402343c1.105469 0 2-.894532 2-2v-3.71875c0-1.105469-.894531-2-2-2h-19.402343c-1.105469 0-2 .894531-2 2zm0 0"/></g><path d="m304 460h-288c-2.207031 0-4-1.792969-4-4v-407.402344c0-26.796875 21.800781-48.597656 48.597656-48.597656h198.804688c26.796875 0 48.597656 21.800781 48.597656 48.597656v407.402344c0 2.207031-1.792969 4-4 4zm-284-8h280v-403.402344c0-22.386718-18.210938-40.597656-40.597656-40.597656h-198.804688c-22.386718 0-40.597656 18.210938-40.597656 40.597656zm0 0" fill="#3762cc"/><path d="m312 488h-304c-4.410156 0-8-3.589844-8-8v-20c0-4.410156 3.589844-8 8-8h304c4.410156 0 8 3.589844 8 8v20c0 4.410156-3.589844 8-8 8zm-304-28v20h304.007812l-.007812-20zm0 0" fill="#3762cc"/><path d="m268 460h-216c-2.207031 0-4-1.792969-4-4v-390.695312c0-15.617188 12.707031-28.324219 28.324219-28.324219h167.351562c15.617188 0 28.324219 12.710937 28.324219 28.324219v390.695312c0 2.207031-1.792969 4-4 4zm-212-8h208v-386.695312c0-11.207032-9.117188-20.324219-20.324219-20.324219h-167.351562c-11.207031 0-20.324219 9.121093-20.324219 20.324219zm0 0" fill="#3762cc"/><path d="m64 376.488281h-12c-2.207031 0-4-1.789062-4-4v-40c0-2.207031 1.792969-4 4-4h12c6.617188 0 12 5.382813 12 12v24c0 6.621094-5.382812 12-12 12zm-8-8h8c2.207031 0 4-1.792969 4-4v-24c0-2.203125-1.792969-4-4-4h-8zm0 0" fill="#3762cc"/><path d="m64 168.488281h-12c-2.207031 0-4-1.789062-4-4v-40c0-2.207031 1.792969-4 4-4h12c6.617188 0 12 5.382813 12 12v24c0 6.621094-5.382812 12-12 12zm-8-8h8c2.207031 0 4-1.792969 4-4v-24c0-2.203125-1.792969-4-4-4h-8zm0 0" fill="#3762cc"/></svg>