<?xml version="1.0" encoding="iso-8859-1"?>
<!-- Generator: Adobe Illustrator 19.0.0, SVG Export Plug-In . SVG Version: 6.00 Build 0)  -->
<svg version="1.1" id="Capa_1" xmlns="http://www.w3.org/2000/svg" xmlns:xlink="http://www.w3.org/1999/xlink" x="0px" y="0px"
	 viewBox="0 0 512 512" style="enable-background:new 0 0 512 512;" xml:space="preserve">
<g>
	<g transform="translate(0 1)">
		<rect x="365.542" y="297.667" style="fill:#A4C2F7;" width="61.124" height="42.667"/>
		<rect x="102.4" y="24.6" style="fill:#7FACFA;" width="273.067" height="460.8"/>
		<rect x="68.267" y="24.6" style="fill:#FFFFFF;" width="273.067" height="460.8"/>
		<rect x="93.867" y="24.6" style="fill:#E3E7F2;" width="256" height="460.8"/>
		<g>
			<path style="fill:#7FACFA;" d="M385.625,41.667H92.241C83.275,41.196,76.374,33.568,76.8,24.6
				c-0.426-8.969,6.475-16.596,15.441-17.067h293.385c8.966,0.471,15.867,8.098,15.441,17.067
				C401.493,33.569,394.592,41.196,385.625,41.667z"/>
			<path style="fill:#7FACFA;" d="M385.625,502.467H92.241c-8.966-0.471-15.867-8.098-15.441-17.067
				c-0.426-8.969,6.475-16.596,15.441-17.067h293.385c8.966,0.471,15.867,8.098,15.441,17.067
				C401.493,494.369,394.592,501.996,385.625,502.467z"/>
		</g>
		<g>
			<path style="fill:#FFFFFF;" d="M351.492,41.667H58.108c-8.966-0.471-15.867-8.098-15.441-17.067
				c-0.426-8.969,6.475-16.596,15.441-17.067h293.385c8.966,0.471,15.867,8.098,15.441,17.067
				C367.359,33.569,360.458,41.196,351.492,41.667z"/>
			<path style="fill:#FFFFFF;" d="M351.492,502.467H58.108c-8.966-0.471-15.867-8.098-15.441-17.067
				c-0.426-8.969,6.475-16.596,15.441-17.067h293.385c8.966,0.471,15.867,8.098,15.441,17.067
				C367.359,494.369,360.458,501.996,351.492,502.467z"/>
		</g>
		<g>
			<path style="fill:#E3E7F2;" d="M360.838,41.667H82.895c-8.727-0.723-15.248-8.332-14.629-17.067
				c-0.62-8.735,5.902-16.343,14.629-17.067h277.943c8.727,0.723,15.248,8.332,14.629,17.067
				C376.087,33.335,369.565,40.943,360.838,41.667z"/>
			<path style="fill:#E3E7F2;" d="M360.838,502.467H82.895c-8.727-0.723-15.248-8.332-14.629-17.067
				c-0.62-8.735,5.902-16.343,14.629-17.067h277.943c8.727,0.723,15.248,8.332,14.629,17.067
				C376.087,494.135,369.565,501.743,360.838,502.467z"/>
		</g>
		<rect x="102.4" y="365.933" style="fill:#7FACFA;" width="273.067" height="102.4"/>
		<g>
			<rect x="93.867" y="365.933" style="fill:#E3E7F2;" width="256" height="102.4"/>
			<path style="fill:#E3E7F2;" d="M438.597,383c-6.589,0-11.931-5.342-11.931-11.931V263.533h25.6
				c9.426,0,17.067,7.641,17.067,17.067v4.53c0,25.393-1.802,50.753-5.393,75.891C462.139,373.632,451.337,383,438.597,383z"/>
			<circle style="fill:#E3E7F2;" cx="221.867" cy="417.133" r="17.067"/>
		</g>
		<path style="fill:#A4C2F7;" d="M187.733,75.8H256c9.426,0,17.067,7.641,17.067,17.067l0,0c0,9.426-7.641,17.067-17.067,17.067
			h-68.267c-9.426,0-17.067-7.641-17.067-17.067l0,0C170.667,83.441,178.308,75.8,187.733,75.8z"/>
	</g>
	<g>
		<polygon style="fill:#FFFFFF;" points="76.8,42.667 76.8,153.6 76.8,469.333 59.733,469.333 59.733,153.6 59.733,42.667 		"/>
		<g>
			<path style="fill:#428DFF;" d="M68.267,119.467c3.45-0.014,6.556-2.096,7.879-5.282c1.323-3.187,0.606-6.856-1.82-9.31
				l-1.279-1.025c-0.476-0.324-0.993-0.583-1.538-0.771c-0.484-0.246-1.003-0.417-1.538-0.508c-0.563-0.096-1.133-0.153-1.704-0.171
				c-2.259,0.031-4.423,0.915-6.059,2.475c-2.07,1.994-2.979,4.908-2.409,7.726c0.57,2.818,2.539,5.149,5.222,6.183
				C66.047,119.221,67.15,119.453,68.267,119.467z"/>
			<path style="fill:#428DFF;" d="M452.267,256h-9.656l25.289-37.933c2.558-3.919,1.482-9.168-2.412-11.764
				c-3.894-2.596-9.153-1.571-11.787,2.298l-34.133,51.2c-0.148,0.222-0.167,0.479-0.291,0.709
				c-0.535,1.018-0.871,2.129-0.991,3.273c-0.063,0.248-0.114,0.499-0.152,0.752v25.6H384V51.2c14.138,0,25.6-11.462,25.6-25.6
				S398.138,0,384,0H59.733c-14.138,0-25.6,11.462-25.6,25.6s11.462,25.6,25.6,25.6v25.6c0,4.713,3.821,8.533,8.533,8.533
				S76.8,81.513,76.8,76.8V51.2h290.133v307.2H76.8V145.067c0-4.713-3.821-8.533-8.533-8.533s-8.533,3.821-8.533,8.533V460.8
				c-14.138,0-25.6,11.462-25.6,25.6s11.462,25.6,25.6,25.6H384c14.138,0,25.6-11.461,25.6-25.6s-11.462-25.6-25.6-25.6V349.867
				h34.133v22.2c0.014,11.298,9.169,20.453,20.467,20.467c16.961-0.072,31.323-12.528,33.792-29.308
				c3.64-25.536,5.47-51.297,5.475-77.092V281.6C477.851,267.468,466.399,256.015,452.267,256z M68.267,34.133h-8.533
				c-4.713,0-8.533-3.821-8.533-8.533s3.821-8.533,8.533-8.533H384c4.713,0,8.533,3.821,8.533,8.533s-3.82,8.533-8.533,8.533H68.267
				z M392.533,486.4c-0.003,4.712-3.822,8.53-8.533,8.533H59.733c-4.713,0-8.533-3.82-8.533-8.533s3.821-8.533,8.533-8.533H384
				C388.712,477.87,392.53,481.689,392.533,486.4z M76.8,460.8v-85.333h290.133V460.8H76.8z M384,332.8v-25.6h34.133v25.6H384z
				 M460.8,286.133c-0.004,24.986-1.777,49.94-5.308,74.675c-1.229,8.392-8.41,14.623-16.892,14.658
				c-1.877-0.002-3.398-1.523-3.4-3.4v-99h17.067c4.712,0.003,8.53,3.822,8.533,8.533V286.133z"/>
			<path style="fill:#428DFF;" d="M221.867,392.533c-14.139,0-25.6,11.462-25.6,25.6c0,14.138,11.462,25.6,25.6,25.6
				c14.138,0,25.6-11.462,25.6-25.6C247.451,404.001,235.999,392.549,221.867,392.533z M221.867,426.667
				c-4.713,0-8.533-3.82-8.533-8.533s3.821-8.533,8.533-8.533c4.713,0,8.533,3.82,8.533,8.533
				C230.397,422.845,226.578,426.664,221.867,426.667z"/>
			<path style="fill:#428DFF;" d="M256,119.467c14.139,0,25.6-11.462,25.6-25.6s-11.461-25.6-25.6-25.6h-68.267
				c-14.138,0-25.6,11.462-25.6,25.6s11.462,25.6,25.6,25.6H256z M179.2,93.867c0.003-4.712,3.822-8.53,8.533-8.533H256
				c4.713,0,8.533,3.821,8.533,8.533c0,4.713-3.821,8.533-8.533,8.533h-68.267C183.022,102.397,179.203,98.578,179.2,93.867z"/>
		</g>
	</g>
</g>
<g>
</g>
<g>
</g>
<g>
</g>
<g>
</g>
<g>
</g>
<g>
</g>
<g>
</g>
<g>
</g>
<g>
</g>
<g>
</g>
<g>
</g>
<g>
</g>
<g>
</g>
<g>
</g>
<g>
</g>
</svg>
